<?xml version="1.0"?>
<svg xmlns="http://www.w3.org/2000/svg" viewBox="0 0 50 50">
    <path style="text-indent:0;text-align:start;line-height:normal;text-transform:none;block-progression:tb;-inkscape-font-specification:Bitstream Vera Sans" d="M 28.625 2 C 28.284565 2.0044213 27.939531 2.017685 27.59375 2.0625 C 26.902187 2.15213 26.145964 2.3852865 25.5625 2.96875 L 2.84375 25.6875 C 1.722194 26.807538 1.7229697 28.66047 2.84375 29.78125 L 20.21875 47.15625 C 21.328385 48.267391 23.157834 48.277567 24.28125 47.1875 L 24.3125 47.15625 L 29.03125 42.40625 C 30.666156 45.709957 34.07341 48 38 48 C 43.511003 48 48 43.511003 48 38 C 48 34.078331 45.703249 30.699793 42.40625 29.0625 L 47.03125 24.4375 C 47.610334 23.8592 47.847588 23.095323 47.9375 22.40625 C 48.027412 21.717177 48 21.037843 48 20.375 L 48 5.5 C 48 3.5782026 46.421188 2 44.5 2 L 29.625 2 C 29.301272 2 28.965435 1.9955788 28.625 2 z M 28.65625 4 C 28.95069 3.9918587 29.283728 4 29.625 4 L 44.5 4 C 45.340812 4 46 4.6577974 46 5.5 L 46 20.375 C 46 21.072157 45.9971 21.699573 45.9375 22.15625 C 45.877912 22.612927 45.783916 22.8413 45.625 23 L 40.34375 28.28125 C 39.588965 28.098335 38.80994 28 38 28 C 32.488997 28 28 32.488997 28 38 C 28 38.80994 28.098335 39.588965 28.28125 40.34375 L 22.90625 45.75 C 22.550867 46.105383 21.979124 46.104605 21.625 45.75 L 4.375 28.46875 L 4.25 28.375 C 3.8927803 28.01778 3.893556 27.449712 4.25 27.09375 L 27 4.375 C 27.154536 4.2204635 27.413063 4.1223696 27.875 4.0625 C 28.105968 4.0325652 28.36181 4.0081413 28.65625 4 z M 39 7 C 36.802706 7 35 8.8027058 35 11 C 35 13.197295 36.802706 15 39 15 C 41.197294 15 43 13.197295 43 11 C 43 8.8027058 41.197294 7 39 7 z M 39 9 C 40.116414 9 41 9.8835866 41 11 C 41 12.116415 40.116414 13 39 13 C 37.883586 13 37 12.116415 37 11 C 37 9.8835866 37.883586 9 39 9 z M 38 30 C 42.430123 30 46 33.569877 46 38 C 46 42.430123 42.430123 46 38 46 C 33.569877 46 30 42.430123 30 38 C 30 33.569877 33.569877 30 38 30 z M 37 33 L 37 37 L 33 37 L 33 39 L 37 39 L 37 43 L 39 43 L 39 39 L 43 39 L 43 37 L 39 37 L 39 33 L 37 33 z" overflow="visible" font-family="Bitstream Vera Sans"/>
</svg>
